PathFileType	4	(X/Y/Z)	/Users/niels/Desktop/University/Third Semester/Perception and Action/Exam/Gymnastics Motion Tracking/Code for Gym Tracking/Analyzed Data/Webcam_Backflip/id7_1_baseline_Sports2D/id7_1_baseline_Sports2D_px_person00.trc
DataRate	CameraRate	NumFrames	NumMarkers	Units	OrigDataRate	OrigDataStartFrame	OrigNumFrames
29.80392156862745	29.80392156862745	11	22	m	29.80392156862745	114	153
Frame#	Time	Hip			RHip			RKnee			RAnkle			RBigToe			RSmallToe			RHeel			LHip			LKnee			LAnkle			LBigToe			LSmallToe			LHeel			Neck			Head			Nose			RShoulder			RElbow			RWrist			LShoulder			LElbow			LWrist		
		X1	Y1	Z1	X2	Y2	Z2	X3	Y3	Z3	X4	Y4	Z4	X5	Y5	Z5	X6	Y6	Z6	X7	Y7	Z7	X8	Y8	Z8	X9	Y9	Z9	X10	Y10	Z10	X11	Y11	Z11	X12	Y12	Z12	X13	Y13	Z13	X14	Y14	Z14	X15	Y15	Z15	X16	Y16	Z16	X17	Y17	Z17	X18	Y18	Z18	X19	Y19	Z19	X20	Y20	Z20	X21	Y21	Z21	X22	Y22	Z22
114	3.825	0.9521540270935286	-0.5565673578471543	0.0	0.9443274885760264	-0.5561793758013202	0.0	0.9379534897237577	-0.6684121067179122	0.0	0.9231121946120971	-0.7732717690200659	0.0	0.9598057786334353	-0.7923324192761665	0.0	0.9455366612287084	-0.7954469512946479	0.0	0.9165349972220996	-0.7895848113889661	0.0	0.9618302903969745	-0.5560682000681374	0.0	0.9459655003946792	-0.6685539495554731	0.0	0.9297945663661685	-0.7676259038638314	0.0	0.9682613665498176	-0.7876657042017629	0.0	0.9668907201230218	-0.7852691617910746	0.0	0.9214864077395053	-0.7823799672973948	0.0	0.9483586962314804	-0.4074797636384506	0.0	0.9512212742156675	-0.33987047609346854	0.0	0.956552794960564	-0.37553361724453577	0.0	0.9315106866320362	-0.4264758558829018	0.0	0.8976210602201393	-0.48733829051713107	0.0	0.9123842877618987	-0.5493256605121021	0.0	0.9594514604791776	-0.42815128737150593	0.0	0.9404227534869566	-0.4832438515242286	0.0	0.9453807306472058	-0.5453160630978213	0.0
115	3.8585526315789473	0.9515371902385947	-0.561238515077628	0.0	0.9438431865701651	-0.561121198217859	0.0	0.9365434682467817	-0.6729273986029858	0.0	0.9227453767557193	-0.7773658196905169	0.0	0.9591976265334067	-0.7967578175027855	0.0	0.9450501800990921	-0.7999279784527836	0.0	0.9164261131082081	-0.794134735925535	0.0	0.9607138195586523	-0.5610688906392429	0.0	0.9445460938102233	-0.6732581597848413	0.0	0.9289304707835696	-0.7720107202397515	0.0	0.9675581349271597	-0.7921310402919625	0.0	0.9663371149755118	-0.7897133221211657	0.0	0.9204358203033423	-0.7870170355734679	0.0	0.9484770467255171	-0.4123318251202539	0.0	0.9515896455872475	-0.3450783737885953	0.0	0.9571472181768311	-0.38052384415324253	0.0	0.9320104265219411	-0.4321789587048147	0.0	0.9029970807668123	-0.4953226589978323	0.0	0.9160898161890811	-0.5576750178847337	0.0	0.9590106801137661	-0.43363570100328536	0.0	0.942487299108102	-0.4907415389946515	0.0	0.9474043168717484	-0.55419036807539	0.0
116	3.892105263157895	0.9506376313774917	-0.5668341974269621	0.0	0.9432581174618763	-0.5669506965184447	0.0	0.9351091257455729	-0.678320213300757	0.0	0.9224156560856248	-0.7823739397886338	0.0	0.9584616659810695	-0.8020118879038185	0.0	0.9446226282232286	-0.805184359127221	0.0	0.9162940932081266	-0.7994855635201283	0.0	0.959106955505052	-0.5668848844023088	0.0	0.9430944946522434	-0.6787270600246866	0.0	0.9281176324079355	-0.7772675822272671	0.0	0.9667395183770212	-0.797281276019695	0.0	0.9656229163765842	-0.7948064178763647	0.0	0.9194679860879085	-0.7924683293091206	0.0	0.9484502944425415	-0.41805037835981235	0.0	0.951994224140342	-0.3511823214071166	0.0	0.9578569147259369	-0.38643826160060507	0.0	0.9324330605478696	-0.43886094804983355	0.0	0.9093959762408638	-0.5040524077213737	0.0	0.9212141135056389	-0.5670411617673784	0.0	0.9581979775912908	-0.440062141735593	0.0	0.9446896806164642	-0.4991757521836499	0.0	0.950690078843764	-0.5637334739896895	0.0
117	3.925657894736842	0.9493929290057943	-0.5729339134022275	0.0	0.9426326660723471	-0.5732215324508135	0.0	0.9337964043312977	-0.6840954520772783	0.0	0.922082930574891	-0.7878140611068235	0.0	0.9577288885845031	-0.8076007321950996	0.0	0.9442770682174709	-0.8107021665739272	0.0	0.916125727335148	-0.8050847321905248	0.0	0.956952260238157	-0.5730536321651384	0.0	0.9416413668095757	-0.6844339724309703	0.0	0.9273571348311811	-0.7828644221519084	0.0	0.9659626670935694	-0.8025737327134905	0.0	0.9648614399796691	-0.7999968400712497	0.0	0.9185584289713683	-0.7980443381527548	0.0	0.9482821766285203	-0.4241571887706698	0.0	0.9523854996822856	-0.3575647605755059	0.0	0.9585192250823158	-0.39270984322727226	0.0	0.9327332515494331	-0.4459337809432181	0.0	0.9164684846675198	-0.5127162808114052	0.0	0.9278091457988381	-0.5764574676605682	0.0	0.9570952378444391	-0.44687246852832596	0.0	0.9471308229477227	-0.507810060723939	0.0	0.9551436839040122	-0.5730045577139377	0.0
118	3.9592105263157893	0.9478412668046061	-0.5789888956285324	0.0	0.942014153286338	-0.5793440742760942	0.0	0.9327402140827415	-0.6896440028061148	0.0	0.9217032358577267	-0.793103636111224	0.0	0.9571997418762117	-0.8128994613706413	0.0	0.9442041403817443	-0.8158761632921081	0.0	0.9159242211517074	-0.8103533998931252	0.0	0.9543196936982304	-0.5789887096408373	0.0	0.9402739930922872	-0.68977104122745	0.0	0.9266374309189843	-0.7881838019965897	0.0	0.9654117408318976	-0.807418430832474	0.0	0.9641636554714815	-0.8047170999328229	0.0	0.9176924016839826	-0.8030520113516287	0.0	0.9480371116150756	-0.4300878216452425	0.0	0.9526717922567758	-0.36357681256718466	0.0	0.9590150169498686	-0.3987436768660508	0.0	0.9329029117063914	-0.4527063444419275	0.0	0.9236080303884272	-0.5206108731535704	0.0	0.935757470958434	-0.5849442416198298	0.0	0.9559362856265144	-0.4534446704855074	0.0	0.9499933822285478	-0.5159276098251786	0.0	0.9608319214770652	-0.5811329153198403	0.0
119	3.992763157894737	0.9461254753069636	-0.5843188244921428	0.0	0.9414155876901168	-0.5845717516576203	0.0	0.9320135914346568	-0.6943146761087482	0.0	0.9213012169956941	-0.7976575043213519	0.0	0.9571313944290499	-0.8172681146454567	0.0	0.9447528153100786	-0.8201046661949682	0.0	0.9157207086662905	-0.8147973701614326	0.0	0.9514670436148611	-0.583967687020526	0.0	0.9391250428407143	-0.6941024903469186	0.0	0.9259955381033413	-0.7926169552668559	0.0	0.9652746643046852	-0.8112799482782844	0.0	0.9636681940312026	-0.8084723123050055	0.0	0.9169401384276248	-0.8069413746792348	0.0	0.9478137645319953	-0.435236522288789	0.0	0.952736897134747	-0.3686501661363246	0.0	0.9592848993138469	-0.4039794518677857	0.0	0.9329873577862846	-0.458454337452647	0.0	0.9300948901666876	-0.5271750498647487	0.0	0.9446771056073022	-0.5917292349472146	0.0	0.9550936047310153	-0.4591699218488597	0.0	0.9534163296143277	-0.5229045863489805	0.0	0.9677697229897952	-0.5874275552300414	0.0
120	4.026315789473684	0.9444628678851894	-0.588295774924426	0.0	0.9408627170744	-0.5882275510019177	0.0	0.9316198868385323	-0.6975919456587192	0.0	0.9209684037587802	-0.8010346912359003	0.0	0.9577403327118295	-0.820237511734538	0.0	0.9462170157875552	-0.822957823106561	0.0	0.9155513474659259	-0.8180832548557253	0.0	0.9488247744358275	-0.5873409360281392	0.0	0.9382836050860216	-0.6969323753432117	0.0	0.9254962200774154	-0.7956908304724576	0.0	0.9656199972912451	-0.8138059046733566	0.0	0.9634761976120072	-0.8109313963507331	0.0	0.9163811071030722	-0.8093787525117143	0.0	0.947691808580059	-0.4390566202095189	0.0	0.9525166590423243	-0.3723270008023141	0.0	0.9592767880502332	-0.4079410149442174	0.0	0.9330534799901024	-0.4625714971310903	0.0	0.9353356297971287	-0.5319563579876655	0.0	0.9539484452753442	-0.5963357672945999	0.0	0.9548900193516858	-0.46352037609106317	0.0	0.9572418287481197	-0.5281741402819884	0.0	0.9756581139639626	-0.5914443382195919	0.0
121	4.059868421052632	0.9430749294310923	-0.590520479364245	0.0	0.9404115849051684	-0.5899350550003408	0.0	0.9315121142164168	-0.6992223702552754	0.0	0.9208017827039171	-0.8029975683425766	0.0	0.9590275009196619	-0.8216246972869764	0.0	0.9485428973967645	-0.8242905408555796	0.0	0.915411983925137	-0.8200116685513407	0.0	0.9468392256156353	-0.5887555957367353	0.0	0.9377620363925958	-0.6980576904184228	0.0	0.9251820833935386	-0.7971528933849428	0.0	0.9662864766013692	-0.8148807986290286	0.0	0.9635486670202206	-0.8119748245090445	0.0	0.9160169119149493	-0.810267261441023	0.0	0.9476968573688737	-0.4411424774193197	0.0	0.9520463504664515	-0.37426350698080746	0.0	0.9589625932793507	-0.4102439337595005	0.0	0.9331393009288592	-0.46469262351695517	0.0	0.9390782519866019	-0.5346047383051057	0.0	0.962906482628371	-0.5985078521783938	0.0	0.9553740242458679	-0.4660596609572006	0.0	0.9610035986241108	-0.5312424335599187	0.0	0.983850231522336	-0.5929843399678096	0.0
122	4.093421052631579	0.9420888240253366	-0.590837174649157	0.0	0.9400749501449086	-0.5896393632094191	0.0	0.9315952867429966	-0.6992011191260395	0.0	0.920846115895206	-0.8034504799035928	0.0	0.96072155751307	-0.8215286046380545	0.0	0.9512673313074781	-0.82420783979007	0.0	0.9152584609649876	-0.8204585341375118	0.0	0.9457558555617477	-0.5881922067032257	0.0	0.937544013387675	-0.6975648935370387	0.0	0.925084509870923	-0.7969785687643755	0.0	0.9669869640885329	-0.8145963643487485	0.0	0.9637644844155363	-0.8116762803252112	0.0	0.9158262439965046	-0.8097137391130228	0.0	0.9478177309023708	-0.44127225750108784	0.0	0.951445797827586	-0.3742716301643082	0.0	0.9584087055158126	-0.4106179153911152	0.0	0.9332478760755231	-0.4647036528630817	0.0	0.9414611390203692	-0.534949000279274	0.0	0.9710263414542861	-0.5981205979087328	0.0	0.9563059951004073	-0.4664670578384264	0.0	0.9642274767769136	-0.5318039945127089	0.0	0.9915163746806913	-0.5920054629869207	0.0
123	4.126973684210526	0.9415121194737379	-0.5892543276507476	0.0	0.9397888255584128	-0.5874808954023771	0.0	0.9317588621824665	-0.6976421679683535	0.0	0.9210641844617489	-0.8023459622373037	0.0	0.9624256755236792	-0.8201672441713727	0.0	0.953777953279776	-0.8228776880313194	0.0	0.9150629395474608	-0.8193475501009404	0.0	0.9455576900185094	-0.5858389294568229	0.0	0.9376156887776286	-0.6956683010392835	0.0	0.925235386290392	-0.7952648173539185	0.0	0.9675305745683597	-0.8131309894507232	0.0	0.9640557265589751	-0.8101904284553669	0.0	0.9158423405221023	-0.8078770024806732	0.0	0.9480373769537247	-0.43943673158453816	0.0	0.9508589202298501	-0.3723503786925466	0.0	0.9577709036531201	-0.4089791374794314	0.0	0.9333687694950555	-0.4626966220134014	0.0	0.9428455449897302	-0.5330455554422565	0.0	0.9779210664801228	-0.595233787999951	0.0	0.9573803445991503	-0.4646466152378443	0.0	0.9666935113082558	-0.5298268604362029	0.0	0.9978757084818047	-0.5885722445588828	0.0
124	4.160526315789474	0.9412947995553129	-0.5859202958938093	0.0	0.9394798176940318	-0.5837061651379559	0.0	0.931940643030275	-0.6946682320056796	0.0	0.9213549237275138	-0.7996768454025649	0.0	0.9638045844719432	-0.8176809984448833	0.0	0.9556143848710218	-0.8203679344704554	0.0	0.9148512767939728	-0.816658657317783	0.0	0.9460780677643623	-0.5819808751817177	0.0	0.937959826365765	-0.6925453650730178	0.0	0.925622703093294	-0.7920954940972202	0.0	0.9679070386438032	-0.8106073509296607	0.0	0.9644218681910152	-0.8076157567324243	0.0	0.9161268305308534	-0.8047950137281499	0.0	0.9483301582964321	-0.43584919208903883	0.0	0.9503854235238528	-0.36869837273100775	0.0	0.9572152796291565	-0.4055070703183834	0.0	0.9334800550406889	-0.4589382008311858	0.0	0.9435762618849207	-0.5291573809117553	0.0	0.983281528143806	-0.5901861992829815	0.0	0.958442729761218	-0.4608358504766098	0.0	0.9684502931832759	-0.5255661922789091	0.0	1.0023921233391468	-0.5829257007750143	0.0
